<?xml version="1.0" standalone="no"?>
<!DOCTYPE svg PUBLIC "-//W3C//DTD SVG 20010904//EN"
 "http://www.w3.org/TR/2001/REC-SVG-20010904/DTD/svg10.dtd">
<svg version="1.0" xmlns="http://www.w3.org/2000/svg"
 width="1280.000000pt" height="1280.000000pt" viewBox="0 0 1280.000000 1280.000000"
 preserveAspectRatio="xMidYMid meet">
<metadata>
Created by potrace 1.14, written by Peter Selinger 2001-2017
</metadata>
<g transform="translate(0.000000,1280.000000) scale(0.100000,-0.100000)"
fill="#000000" stroke="none">
<path d="M3199 12796 c-2 -2 -41 -7 -86 -10 -46 -4 -91 -9 -100 -10 -10 -2
-40 -7 -68 -10 -64 -9 -117 -18 -130 -21 -5 -1 -28 -5 -50 -10 -22 -4 -47 -9
-55 -11 -511 -121 -915 -332 -1227 -641 -61 -59 -130 -133 -155 -163 -81 -98
-178 -251 -243 -385 -60 -120 -172 -431 -161 -443 3 -2 1 -12 -3 -21 -5 -9
-11 -29 -14 -46 -3 -16 -10 -53 -16 -82 -6 -28 -13 -78 -16 -110 -3 -32 -9
-69 -13 -83 -4 -14 -8 -1883 -9 -4155 l-2 -4130 29 -110 c17 -60 31 -114 33
-120 8 -30 81 -175 89 -175 4 0 8 -5 8 -11 0 -19 79 -111 137 -159 129 -109
310 -175 501 -182 28 -1 52 -4 53 -7 1 -3 2 -217 4 -476 1 -259 5 -481 9 -495
4 -14 11 -46 16 -71 20 -103 98 -285 142 -333 10 -11 18 -23 18 -27 0 -4 24
-32 54 -62 159 -165 358 -238 631 -232 77 2 151 6 165 9 14 3 38 9 53 11 139
26 286 111 395 230 101 110 199 340 216 505 3 25 5 248 5 496 l1 450 2990 0
2990 0 1 -455 c0 -251 2 -463 3 -471 2 -8 6 -35 9 -60 13 -98 45 -197 95 -295
112 -219 277 -345 532 -406 79 -19 345 -17 437 4 308 69 513 280 599 619 l26
103 2 477 c2 263 4 480 7 482 2 2 33 6 69 10 36 3 76 8 90 11 14 4 36 8 49 11
13 3 32 9 43 15 10 5 18 7 18 5 0 -7 66 17 142 53 74 34 184 114 235 170 64
69 142 204 159 271 17 69 25 105 32 138 9 48 9 8289 -1 8407 -4 50 -9 101 -12
115 -3 14 -8 41 -11 60 -8 66 -14 105 -19 120 -2 8 -6 32 -10 54 -3 21 -7 41
-9 45 -2 3 -7 22 -10 41 -5 36 -58 223 -78 275 -19 53 -47 118 -96 225 -42 93
-162 278 -247 379 -45 54 -174 181 -235 231 -232 190 -574 344 -905 405 -49
10 -97 18 -105 20 -9 2 -43 6 -75 10 -33 4 -71 10 -85 13 -26 7 -6834 15
-6841 8z m2414 -1279 c15 -2 27 -1 27 2 0 3 108 4 240 1 132 -3 240 -1 240 3
0 5 4 6 9 3 6 -4 332 -7 471 -5 8 1 116 0 240 0 124 -1 295 -1 380 -1 85 0
160 0 165 -1 6 -1 14 -1 18 0 23 4 1786 0 1805 -3 116 -24 191 -120 178 -229
-8 -59 -38 -117 -76 -145 -69 -52 114 -49 -2915 -48 -2653 1 -2822 2 -2859 19
-162 72 -162 309 -1 386 36 18 66 20 304 21 146 0 266 2 267 3 4 4 1477 -2
1507 -6z m-2590 -1280 c119 -1 217 0 217 3 0 3 108 3 240 0 132 -3 240 -3 240
0 0 3 108 3 240 0 132 -3 240 -3 240 0 0 3 108 3 240 0 132 -3 240 -3 240 0 0
4 3200 4 3455 0 39 -1 171 -1 295 -1 124 0 232 0 240 0 8 -1 116 -1 240 0 124
0 232 0 240 0 8 -1 116 -1 240 0 124 0 232 0 240 0 8 -1 116 0 240 0 323 2
528 -5 585 -19 28 -6 58 -13 68 -15 55 -12 165 -61 224 -100 52 -35 160 -142
186 -185 11 -19 24 -37 27 -40 12 -10 69 -137 89 -200 48 -150 47 -139 46
-1590 -2 -1473 1 -1391 -52 -1555 -31 -98 -102 -233 -148 -281 -5 -6 -26 -29
-46 -50 -39 -42 -57 -57 -105 -91 -45 -32 -146 -83 -164 -83 -9 0 -20 -4 -26
-9 -9 -9 -86 -27 -164 -39 -25 -4 -1827 -7 -4005 -7 -3700 1 -3965 2 -4038 18
-207 45 -356 141 -474 305 -56 77 -114 211 -138 312 -9 41 -19 84 -22 95 -3
11 -6 628 -7 1370 -2 1467 -3 1448 54 1615 97 279 279 453 548 521 68 17 127
23 267 26 99 3 181 6 183 8 1 1 12 0 25 -2 12 -2 120 -5 240 -6z m-328 -5983
c28 -4 52 -8 55 -9 93 -19 258 -98 337 -162 146 -118 268 -308 298 -464 2 -9
8 -33 13 -53 10 -36 10 -273 -1 -311 -3 -11 -12 -47 -21 -80 -62 -237 -263
-459 -502 -553 -78 -30 -94 -35 -170 -49 -50 -10 -235 -9 -298 0 -62 10 -155
42 -231 80 -520 260 -631 955 -217 1365 134 133 321 223 507 244 48 6 176 1
230 -8z m7690 2 c266 -44 512 -231 630 -481 56 -119 78 -222 78 -365 1 -359
-220 -671 -565 -800 -32 -12 -68 -23 -80 -25 -13 -3 -45 -9 -73 -14 -49 -10
-250 -8 -290 3 -11 2 -47 12 -80 21 -274 72 -517 322 -591 610 -32 127 -29
298 10 456 13 52 83 192 121 244 181 242 427 366 715 359 47 -1 103 -5 125 -8z"/>
</g>
</svg>
